<svg version="1.1" id="Layer_1" xmlns="http://www.w3.org/2000/svg" xmlns:xlink="http://www.w3.org/1999/xlink" x="0px" y="0px"
	 width="100%" viewBox="0 0 748 712" enable-background="new 0 0 748 712" xml:space="preserve">
<path fill="#3F4156" opacity="1.000000" stroke="none" 
	d="
M748.000000,713.000000 
	C499.057312,713.000000 250.114609,713.000000 1.085955,713.000000 
	C1.085955,475.778625 1.085955,238.557190 1.085955,1.000000 
	C126.358963,1.000000 251.718216,1.000000 377.493896,1.406632 
	C377.087311,2.227043 376.305847,2.846545 375.434784,3.022428 
	C367.650665,4.594201 359.605896,5.326208 352.098999,7.739702 
	C323.659790,16.883005 299.843109,33.641232 278.490692,54.119667 
	C256.383179,75.322334 238.145660,99.649300 222.385147,125.784515 
	C217.776443,133.427017 211.722382,136.075699 203.499039,136.069504 
	C157.502045,136.034836 111.504868,135.995026 65.508133,136.111435 
	C57.886925,136.130722 49.987785,135.770767 42.700573,137.557755 
	C21.835073,142.674438 6.219273,168.750214 21.137743,190.339462 
	C29.643173,202.648071 37.505924,215.400375 45.674374,227.942276 
	C74.277077,271.859039 102.876892,315.777649 131.496979,359.683075 
	C157.207626,399.125214 182.942719,438.551361 208.668533,477.983612 
	C233.573090,516.157043 258.456482,554.344360 283.391937,592.497620 
	C306.512726,627.874268 329.693542,663.211731 352.840668,698.571167 
	C363.491272,714.840942 383.600189,715.570618 394.365662,700.107178 
	C398.925201,693.557922 403.385590,686.935608 407.737030,680.246277 
	C431.684418,643.432617 455.494934,606.529663 479.529236,569.773010 
	C497.830933,541.783569 516.471680,514.016052 534.822632,486.058533 
	C553.266235,457.959747 571.490723,429.717163 589.898376,401.594666 
	C607.480896,374.732727 625.238525,347.985352 642.805359,321.113190 
	C665.106018,286.999695 687.370850,252.862167 709.486755,218.628799 
	C717.789551,205.776871 725.851807,192.757278 733.630127,179.581787 
	C744.476562,161.209534 730.128052,137.126495 710.861694,135.613190 
	C707.602905,135.357208 704.282532,136.030762 700.990479,136.032257 
	C637.494568,136.061020 573.998596,135.994217 510.502869,136.096222 
	C495.037354,136.121063 479.571136,136.619186 464.108765,137.030411 
	C460.581299,137.124222 459.161163,135.992599 458.844147,132.264801 
	C457.891205,121.057785 459.862396,110.872330 466.711670,101.598312 
	C470.624939,96.299751 472.262634,89.947586 471.825073,83.204956 
	C470.815216,67.643585 469.831696,52.080463 468.873291,36.515850 
	C468.519318,30.767927 466.376221,26.315535 460.770355,23.862009 
	C454.825287,21.260010 449.064087,18.234589 443.100067,15.680069 
	C432.876099,11.300928 422.781647,6.866595 411.167450,6.767635 
	C405.365784,6.718202 399.578491,4.163455 393.811829,2.639311 
	C393.423889,2.536784 393.265289,1.566628 393.000000,0.999999 
	C511.025848,1.000000 629.051697,1.000000 747.542236,1.457943 
	C748.004639,238.943924 748.002319,475.971954 748.000000,713.000000 
z"/>
<path fill="#040403" opacity="1.000000" stroke="none" 
	d="
M392.533875,0.999999 
	C393.265289,1.566628 393.423889,2.536784 393.811829,2.639311 
	C399.578491,4.163455 405.365784,6.718202 411.167450,6.767635 
	C422.781647,6.866595 432.876099,11.300928 443.100067,15.680069 
	C449.064087,18.234589 454.825287,21.260010 460.770355,23.862009 
	C466.376221,26.315535 468.519318,30.767927 468.873291,36.515850 
	C469.831696,52.080463 470.815216,67.643585 471.825073,83.204956 
	C472.262634,89.947586 470.624939,96.299751 466.711670,101.598312 
	C459.862396,110.872330 457.891205,121.057785 458.844147,132.264801 
	C459.161163,135.992599 460.581299,137.124222 464.108765,137.030411 
	C479.571136,136.619186 495.037354,136.121063 510.502869,136.096222 
	C573.998596,135.994217 637.494568,136.061020 700.990479,136.032257 
	C704.282532,136.030762 707.602905,135.357208 710.861694,135.613190 
	C730.128052,137.126495 744.476562,161.209534 733.630127,179.581787 
	C725.851807,192.757278 717.789551,205.776871 709.486755,218.628799 
	C687.370850,252.862167 665.106018,286.999695 642.805359,321.113190 
	C625.238525,347.985352 607.480896,374.732727 589.898376,401.594666 
	C571.490723,429.717163 553.266235,457.959747 534.822632,486.058533 
	C516.471680,514.016052 497.830933,541.783569 479.529236,569.773010 
	C455.494934,606.529663 431.684418,643.432617 407.737030,680.246277 
	C403.385590,686.935608 398.925201,693.557922 394.365662,700.107178 
	C383.600189,715.570618 363.491272,714.840942 352.840668,698.571167 
	C329.693542,663.211731 306.512726,627.874268 283.391937,592.497620 
	C258.456482,554.344360 233.573090,516.157043 208.668533,477.983612 
	C182.942719,438.551361 157.207626,399.125214 131.496979,359.683075 
	C102.876892,315.777649 74.277077,271.859039 45.674374,227.942276 
	C37.505924,215.400375 29.643173,202.648071 21.137743,190.339462 
	C6.219273,168.750214 21.835073,142.674438 42.700573,137.557755 
	C49.987785,135.770767 57.886925,136.130722 65.508133,136.111435 
	C111.504868,135.995026 157.502045,136.034836 203.499039,136.069504 
	C211.722382,136.075699 217.776443,133.427017 222.385147,125.784515 
	C238.145660,99.649300 256.383179,75.322334 278.490692,54.119667 
	C299.843109,33.641232 323.659790,16.883005 352.098999,7.739702 
	C359.605896,5.326208 367.650665,4.594201 375.434784,3.022428 
	C376.305847,2.846545 377.087311,2.227043 377.955170,1.406632 
	C382.689240,1.000000 387.378510,1.000000 392.533875,0.999999 
M519.501892,176.272766 
	C505.352936,176.649323 491.204834,177.064285 477.054443,177.375885 
	C473.446259,177.455338 471.273651,179.088470 469.766968,182.339127 
	C464.166840,194.421204 458.335266,206.396133 452.752441,218.486023 
	C451.510559,221.175354 450.400787,224.120605 450.132599,227.031143 
	C448.927551,240.110703 447.929016,253.213364 447.170837,266.325897 
	C447.048462,268.442017 447.974579,271.102356 449.339569,272.742523 
	C458.294800,283.502777 467.464050,294.027649 479.876038,301.172821 
	C494.188812,309.412170 509.388062,314.026642 525.973022,313.849365 
	C537.747925,313.723480 547.816467,317.366455 555.410034,326.887573 
	C564.699097,338.534515 571.436523,338.141296 579.803162,325.714386 
	C580.267944,325.023987 580.707153,324.316406 581.163696,323.620331 
	C600.708313,293.821625 620.263184,264.029633 639.794861,234.222458 
	C650.473877,217.925385 661.132446,201.614853 671.761230,185.285004 
	C675.320679,179.816360 674.935059,178.828827 668.305481,177.930389 
	C662.049194,177.082581 655.732605,176.189087 649.440613,176.175110 
	C606.461060,176.079529 563.481018,176.210617 519.501892,176.272766 
M77.428619,177.515228 
	C72.451797,180.406143 75.745621,183.630707 77.418594,186.275879 
	C86.939941,201.330185 96.617523,216.286789 106.350082,231.206085 
	C113.286545,241.839142 113.362450,241.789612 121.957474,232.657990 
	C125.458908,228.937927 128.383972,228.655029 132.437317,231.721985 
	C133.495163,232.522415 134.442749,233.471771 135.418564,234.376907 
	C142.036133,240.515121 142.031830,240.514435 148.820328,234.815979 
	C156.242722,228.585403 164.538116,223.857895 174.398453,226.787674 
	C185.373749,230.048721 193.805679,226.526779 201.866898,219.623413 
	C213.458511,209.696747 226.563660,202.163940 240.442703,195.899399 
	C250.600296,191.314606 260.717041,186.635635 270.771149,181.829514 
	C272.189697,181.151413 273.148315,179.511169 274.319824,178.316269 
	C272.735992,177.837540 271.153931,176.946487 269.568085,176.939682 
	C213.275787,176.698380 156.983231,176.503754 100.690514,176.413177 
	C93.211533,176.401138 85.731613,176.976593 77.428619,177.515228 
M259.949615,233.485870 
	C251.798996,238.290939 243.071884,242.343964 235.617905,248.057846 
	C220.163864,259.904236 205.363480,272.605499 190.343826,285.015167 
	C185.740768,288.818298 185.315720,291.621704 188.525024,296.712433 
	C191.619293,301.620636 194.911423,306.404114 198.055756,311.150482 
	C196.670654,313.079529 195.462662,314.761932 193.863434,316.989197 
	C195.802078,316.989197 196.969208,317.147095 198.080688,316.965118 
	C211.201279,314.816742 224.575989,313.588440 237.347992,310.135834 
	C248.289902,307.177979 259.465607,303.061340 268.834808,296.877014 
	C278.253357,290.660065 285.841644,281.510040 293.644958,273.100586 
	C296.088623,270.467102 297.755798,266.088684 297.824371,262.471924 
	C298.013336,252.503845 297.353027,242.503494 296.668427,232.540665 
	C296.205933,225.809998 294.677948,219.356812 288.872864,214.833191 
	C285.161194,211.940872 282.611694,211.954498 280.946472,216.120972 
	C277.165314,225.581482 269.541138,230.033371 259.949615,233.485870 
M436.984650,163.461349 
	C435.711029,165.211288 434.579712,167.089035 433.141205,168.690903 
	C421.853027,181.261200 409.395691,190.865814 390.934662,185.074341 
	C389.750244,184.702759 387.831573,184.508636 387.110962,185.168015 
	C381.885315,189.949417 379.781036,185.753632 377.234955,182.108978 
	C374.663940,178.428558 371.865814,174.906815 368.297211,170.157837 
	C367.454803,173.605103 367.052399,175.325287 366.613159,177.036011 
	C364.964233,183.458282 364.032074,190.192093 361.435425,196.206528 
	C358.993561,201.862534 357.076385,202.491486 364.449341,208.497452 
	C367.800446,211.227264 370.468689,214.924911 372.987518,218.506454 
	C375.051270,221.440903 376.355835,224.898865 378.150787,228.036758 
	C379.164612,229.809036 380.489105,231.403580 381.334656,232.598953 
	C377.149170,234.819733 373.512817,236.749146 369.876465,238.678558 
	C369.893036,239.351028 369.909637,240.023499 369.926208,240.695953 
	C374.944855,242.768539 379.963531,244.841125 384.937622,246.895294 
	C370.921173,263.859955 368.868622,269.704285 373.995453,279.038879 
	C380.103607,278.415680 386.402222,277.956329 392.647125,277.103455 
	C416.560028,273.837585 431.485657,252.803055 426.512970,229.076630 
	C425.064606,222.166000 426.133423,216.231201 430.637421,210.894989 
	C441.360107,198.191086 445.166138,183.047302 445.788788,166.926529 
	C445.919006,163.555252 444.440735,160.121857 443.466736,155.622345 
	C440.791809,158.812515 439.090027,160.842056 436.984650,163.461349 
M395.656738,22.235048 
	C353.713898,44.408028 262.198517,110.192444 256.898132,122.747864 
	C265.429901,118.457870 273.920013,114.044868 281.964935,108.931450 
	C312.587097,89.467888 343.385773,70.251785 373.436035,49.933899 
	C385.035797,42.090927 394.845642,31.589499 405.364655,22.180437 
	C406.199310,21.433899 406.199982,19.755018 406.588196,18.509422 
	C405.247406,18.601007 403.795166,18.396156 402.590179,18.849035 
	C400.421844,19.663933 398.401703,20.873158 395.656738,22.235048 
M431.802490,35.782642 
	C431.124756,34.896706 430.447021,34.010765 429.460815,32.721558 
	C427.776093,36.306061 426.100220,39.373016 424.868988,42.609138 
	C423.053314,47.381214 419.803192,49.690113 414.710297,49.958488 
	C411.362488,50.134914 408.045502,50.895393 403.803009,51.530884 
	C406.209229,54.178860 407.558289,56.501705 409.574310,57.729282 
	C416.393372,61.881580 418.603668,67.331734 416.205170,75.064484 
	C414.957916,79.085571 418.312653,81.828300 422.334991,80.521355 
	C423.573059,80.119080 424.789978,79.446167 425.819855,78.644447 
	C430.177399,75.252319 434.580292,75.360428 439.279327,77.956429 
	C441.559692,79.216209 444.091522,80.020691 447.987549,81.649040 
	C444.031921,68.374565 447.297424,57.818066 457.093658,48.692833 
	C446.909973,46.172440 435.883850,48.245522 431.802490,35.782642 
M321.617340,349.829041 
	C316.929047,341.077759 311.488342,332.629852 307.797089,323.476501 
	C304.985382,316.504028 304.316803,308.651428 302.844116,301.160980 
	C302.003235,296.884338 300.962952,292.855469 296.697693,290.661041 
	C293.260406,294.132660 291.097900,298.016846 292.585846,302.553528 
	C296.507965,314.512054 299.688751,326.902954 305.240692,338.091583 
	C312.804443,353.334717 324.838379,364.873383 340.997955,371.415466 
	C342.487152,372.018372 344.148621,372.195740 346.819214,372.828949 
	C337.861328,364.716492 329.955170,357.556519 321.617340,349.829041 
M355.384918,106.053131 
	C347.426147,107.706375 339.422607,109.182053 331.547333,111.166687 
	C330.021149,111.551300 328.995605,113.922356 327.739105,115.377098 
	C329.447357,116.592857 331.046417,118.040619 332.913269,118.919342 
	C333.754333,119.315231 335.134521,118.598557 336.261597,118.348366 
	C341.928864,117.090317 347.545593,115.518616 353.267883,114.610161 
	C369.983582,111.956390 386.747223,109.605637 403.474548,107.022644 
	C405.652649,106.686302 407.728027,105.684799 409.850983,104.991386 
	C409.704926,104.335556 409.558899,103.679718 409.412842,103.023880 
	C391.671204,103.617737 373.824371,101.418358 355.384918,106.053131 
z"/>
<path fill="#EBEBED" opacity="1.000000" stroke="none" 
	d="
M748.500000,713.000000 
	C748.002319,475.971954 748.004639,238.943924 748.003479,1.457943 
	C748.333313,1.166667 748.943848,1.315920 748.955627,1.502790 
	C749.039062,2.830880 749.000000,4.166667 749.000000,5.500000 
	C749.000000,241.333328 749.000000,477.166656 748.500000,713.000000 
z"/>
<path fill="#44C7F3" opacity="1.000000" stroke="none" 
	d="
M520.001465,176.270691 
	C563.481018,176.210617 606.461060,176.079529 649.440613,176.175110 
	C655.732605,176.189087 662.049194,177.082581 668.305481,177.930389 
	C674.935059,178.828827 675.320679,179.816360 671.761230,185.285004 
	C661.132446,201.614853 650.473877,217.925385 639.794861,234.222458 
	C620.263184,264.029633 600.708313,293.821625 581.163696,323.620331 
	C580.707153,324.316406 580.267944,325.023987 579.803162,325.714386 
	C571.436523,338.141296 564.699097,338.534515 555.410034,326.887573 
	C547.816467,317.366455 537.747925,313.723480 525.973022,313.849365 
	C509.388062,314.026642 494.188812,309.412170 479.876038,301.172821 
	C467.464050,294.027649 458.294800,283.502777 449.339569,272.742523 
	C447.974579,271.102356 447.048462,268.442017 447.170837,266.325897 
	C447.929016,253.213364 448.927551,240.110703 450.132599,227.031143 
	C450.400787,224.120605 451.510559,221.175354 452.752441,218.486023 
	C458.335266,206.396133 464.166840,194.421204 469.766968,182.339127 
	C471.273651,179.088470 473.446259,177.455338 477.054443,177.375885 
	C491.204834,177.064285 505.352936,176.649323 520.001465,176.270691 
z"/>
<path fill="#F5E201" opacity="1.000000" stroke="none" 
	d="
M77.840378,177.397598 
	C85.731613,176.976593 93.211533,176.401138 100.690514,176.413177 
	C156.983231,176.503754 213.275787,176.698380 269.568085,176.939682 
	C271.153931,176.946487 272.735992,177.837540 274.319824,178.316269 
	C273.148315,179.511169 272.189697,181.151413 270.771149,181.829514 
	C260.717041,186.635635 250.600296,191.314606 240.442703,195.899399 
	C226.563660,202.163940 213.458511,209.696747 201.866898,219.623413 
	C193.805679,226.526779 185.373749,230.048721 174.398453,226.787674 
	C164.538116,223.857895 156.242722,228.585403 148.820328,234.815979 
	C142.031830,240.514435 142.036133,240.515121 135.418564,234.376907 
	C134.442749,233.471771 133.495163,232.522415 132.437317,231.721985 
	C128.383972,228.655029 125.458908,228.937927 121.957474,232.657990 
	C113.362450,241.789612 113.286545,241.839142 106.350082,231.206085 
	C96.617523,216.286789 86.939941,201.330185 77.418594,186.275879 
	C75.745621,183.630707 72.451797,180.406143 77.840378,177.397598 
z"/>
<path fill="#F7E301" opacity="1.000000" stroke="none" 
	d="
M260.296082,233.328369 
	C269.541138,230.033371 277.165314,225.581482 280.946472,216.120972 
	C282.611694,211.954498 285.161194,211.940872 288.872864,214.833191 
	C294.677948,219.356812 296.205933,225.809998 296.668427,232.540665 
	C297.353027,242.503494 298.013336,252.503845 297.824371,262.471924 
	C297.755798,266.088684 296.088623,270.467102 293.644958,273.100586 
	C285.841644,281.510040 278.253357,290.660065 268.834808,296.877014 
	C259.465607,303.061340 248.289902,307.177979 237.347992,310.135834 
	C224.575989,313.588440 211.201279,314.816742 198.080688,316.965118 
	C196.969208,317.147095 195.802078,316.989197 193.863434,316.989197 
	C195.462662,314.761932 196.670654,313.079529 198.055756,311.150482 
	C194.911423,306.404114 191.619293,301.620636 188.525024,296.712433 
	C185.315720,291.621704 185.740768,288.818298 190.343826,285.015167 
	C205.363480,272.605499 220.163864,259.904236 235.617905,248.057846 
	C243.071884,242.343964 251.798996,238.290939 260.296082,233.328369 
z"/>
<path fill="#F6F6F6" opacity="1.000000" stroke="none" 
	d="
M437.186462,163.166473 
	C439.090027,160.842056 440.791809,158.812515 443.466736,155.622345 
	C444.440735,160.121857 445.919006,163.555252 445.788788,166.926529 
	C445.166138,183.047302 441.360107,198.191086 430.637421,210.894989 
	C426.133423,216.231201 425.064606,222.166000 426.512970,229.076630 
	C431.485657,252.803055 416.560028,273.837585 392.647125,277.103455 
	C386.402222,277.956329 380.103607,278.415680 373.995453,279.038879 
	C368.868622,269.704285 370.921173,263.859955 384.937622,246.895294 
	C379.963531,244.841125 374.944855,242.768539 369.926208,240.695953 
	C369.909637,240.023499 369.893036,239.351028 369.876465,238.678558 
	C373.512817,236.749146 377.149170,234.819733 381.334656,232.598953 
	C380.489105,231.403580 379.164612,229.809036 378.150787,228.036758 
	C376.355835,224.898865 375.051270,221.440903 372.987518,218.506454 
	C370.468689,214.924911 367.800446,211.227264 364.449341,208.497452 
	C357.076385,202.491486 358.993561,201.862534 361.435425,196.206528 
	C364.032074,190.192093 364.964233,183.458282 366.613159,177.036011 
	C367.052399,175.325287 367.454803,173.605103 368.297211,170.157837 
	C371.865814,174.906815 374.663940,178.428558 377.234955,182.108978 
	C379.781036,185.753632 381.885315,189.949417 387.110962,185.168015 
	C387.831573,184.508636 389.750244,184.702759 390.934662,185.074341 
	C409.395691,190.865814 421.853027,181.261200 433.141205,168.690903 
	C434.579712,167.089035 435.711029,165.211288 437.186462,163.166473 
z"/>
<path fill="#EBEBEB" opacity="1.000000" stroke="none" 
	d="
M395.988220,22.076347 
	C398.401703,20.873158 400.421844,19.663933 402.590179,18.849035 
	C403.795166,18.396156 405.247406,18.601007 406.588196,18.509424 
	C406.199982,19.755018 406.199310,21.433899 405.364655,22.180437 
	C394.845642,31.589499 385.035797,42.090927 373.436035,49.933899 
	C343.385773,70.251785 312.587097,89.467888 281.964935,108.931450 
	C273.920013,114.044868 265.429901,118.457870 256.898132,122.747864 
	C262.198517,110.192444 353.713898,44.408028 395.988220,22.076347 
z"/>
<path fill="#F2F2F2" opacity="1.000000" stroke="none" 
	d="
M431.980530,36.084602 
	C435.883850,48.245522 446.909973,46.172440 457.093658,48.692833 
	C447.297424,57.818066 444.031921,68.374565 447.987549,81.649040 
	C444.091522,80.020691 441.559692,79.216209 439.279327,77.956429 
	C434.580292,75.360428 430.177399,75.252319 425.819855,78.644447 
	C424.789978,79.446167 423.573059,80.119080 422.334991,80.521355 
	C418.312653,81.828300 414.957916,79.085571 416.205170,75.064484 
	C418.603668,67.331734 416.393372,61.881580 409.574310,57.729282 
	C407.558289,56.501705 406.209229,54.178860 403.803009,51.530884 
	C408.045502,50.895393 411.362488,50.134914 414.710297,49.958488 
	C419.803192,49.690113 423.053314,47.381214 424.868988,42.609138 
	C426.100220,39.373016 427.776093,36.306061 429.460815,32.721558 
	C430.447021,34.010765 431.124756,34.896706 431.980530,36.084602 
z"/>
<path fill="#E0E0E0" opacity="1.000000" stroke="none" 
	d="
M321.833160,350.112793 
	C329.955170,357.556519 337.861328,364.716492 346.819214,372.828949 
	C344.148621,372.195740 342.487152,372.018372 340.997955,371.415466 
	C324.838379,364.873383 312.804443,353.334717 305.240692,338.091583 
	C299.688751,326.902954 296.507965,314.512054 292.585846,302.553528 
	C291.097900,298.016846 293.260406,294.132660 296.697693,290.661041 
	C300.962952,292.855469 302.003235,296.884338 302.844116,301.160980 
	C304.316803,308.651428 304.985382,316.504028 307.797089,323.476501 
	C311.488342,332.629852 316.929047,341.077759 321.833160,350.112793 
z"/>
<path fill="#DEDEDD" opacity="1.000000" stroke="none" 
	d="
M355.807800,105.996719 
	C373.824371,101.418358 391.671204,103.617737 409.412842,103.023880 
	C409.558899,103.679718 409.704926,104.335556 409.850983,104.991386 
	C407.728027,105.684799 405.652649,106.686302 403.474548,107.022644 
	C386.747223,109.605637 369.983582,111.956390 353.267883,114.610161 
	C347.545593,115.518616 341.928864,117.090317 336.261597,118.348366 
	C335.134521,118.598557 333.754333,119.315231 332.913269,118.919342 
	C331.046417,118.040619 329.447357,116.592857 327.739105,115.377106 
	C328.995605,113.922356 330.021149,111.551300 331.547333,111.166687 
	C339.422607,109.182053 347.426147,107.706375 355.807800,105.996719 
z"/>
</svg>