<svg version="1.1" id="Layer_1" xmlns="http://www.w3.org/2000/svg" xmlns:xlink="http://www.w3.org/1999/xlink" x="0px" y="0px"
	 width="100%" viewBox="0 0 500 500" enable-background="new 0 0 500 500" xml:space="preserve">
<path fill="#000000" opacity="1.000000" stroke="none" 
	d="
M218.000000,501.000000 
	C145.333344,501.000000 73.166702,501.000000 1.000039,501.000000 
	C1.000026,334.333405 1.000026,167.666779 1.000013,1.000128 
	C167.666565,1.000085 334.333130,1.000085 500.999756,1.000043 
	C500.999847,167.666534 500.999847,334.333069 500.999939,500.999817 
	C406.833344,501.000000 312.666656,501.000000 218.000000,501.000000 
M250.397919,133.258453 
	C243.901535,144.466537 237.380692,155.660522 230.913651,166.885513 
	C215.408264,193.798584 199.903809,220.712341 184.511581,247.690063 
	C183.760757,249.006027 184.082977,250.934204 184.688095,252.853073 
	C189.837234,252.883820 194.995071,252.744995 200.132278,253.008423 
	C203.250137,253.168304 204.896088,251.914627 206.373383,249.275482 
	C212.446350,238.426376 218.717209,227.687607 224.955673,216.931671 
	C233.682388,201.885666 242.445129,186.860580 251.494247,171.915649 
	C251.494247,171.915649 251.800934,171.985992 251.940918,172.710403 
	C263.330200,192.775726 274.719452,212.841034 285.177216,233.112030 
	C278.159607,233.103027 271.141998,233.094040 263.918274,232.386963 
	C259.616119,225.332047 255.313965,218.277130 250.380814,211.426666 
	C247.391144,216.567078 244.339172,221.673004 241.459564,226.874359 
	C240.813110,228.042007 240.059357,229.947632 240.560211,230.827362 
	C244.700851,238.100357 249.125183,245.211838 254.045929,252.780014 
	C275.182404,252.819824 296.318909,252.866928 317.455383,252.869171 
	C318.194427,252.869247 318.933563,252.422577 319.795837,251.480988 
	C305.061890,225.806015 290.284241,200.155869 275.658783,174.419266 
	C274.127228,171.724182 272.438324,170.781723 269.397552,170.918320 
	C263.578125,171.179733 257.739075,171.004471 251.919296,170.281464 
	C255.234436,164.088593 258.549561,157.895721 261.911041,151.026962 
	C258.288025,145.027634 254.665024,139.028305 250.397919,133.258453 
M305.710022,289.582947 
	C305.710022,296.985382 305.710022,304.387817 305.710022,311.790527 
	C308.141998,311.790527 309.897064,311.790527 312.244690,311.790527 
	C312.244690,305.623230 312.244690,299.675537 312.244690,292.680573 
	C315.073334,297.179382 317.246246,300.635284 319.736786,304.596375 
	C322.165802,300.469299 324.293274,296.854553 326.420746,293.239838 
	C326.724030,293.316376 327.027283,293.392914 327.330566,293.469421 
	C327.330566,299.500397 327.330566,305.531372 327.330566,311.748535 
	C329.751556,311.748535 331.637573,311.748535 333.657166,311.748535 
	C333.657166,301.244598 333.657166,291.016418 333.657166,280.775604 
	C329.485107,279.629181 326.487946,280.096741 324.731445,284.496124 
	C323.520996,287.527954 321.517242,290.242981 319.965118,292.931488 
	C314.397247,289.632935 316.040497,278.837860 305.710358,280.554291 
	C305.710358,283.342102 305.710358,285.979584 305.710022,289.582947 
M121.544456,378.738373 
	C125.775703,379.287415 130.014511,380.321899 134.236176,380.256104 
	C138.951141,380.182617 143.016891,378.200378 144.468704,373.051666 
	C145.919418,367.906860 144.061554,364.004669 139.755951,361.224731 
	C143.113556,352.968506 140.024307,348.280579 131.148438,347.925842 
	C129.321121,347.852753 127.479202,348.095612 125.655571,347.991089 
	C122.467224,347.808411 121.324913,349.043365 121.413933,352.361450 
	C121.641747,360.853302 121.493469,369.355255 121.544456,378.738373 
M214.732574,282.034393 
	C204.225342,289.688629 203.638168,303.777496 213.563812,310.078094 
	C220.106110,314.230957 228.738678,313.247803 234.198578,307.728027 
	C239.648911,302.217926 240.570084,292.966064 236.306046,286.561554 
	C231.947769,280.015503 223.920609,278.147034 214.732574,282.034393 
M274.935730,280.091278 
	C273.108795,280.057465 271.268372,279.864471 269.457245,280.017548 
	C261.810699,280.663696 255.612473,287.330170 255.031738,295.406799 
	C254.444504,303.573669 259.165466,310.220184 266.909058,312.128571 
	C275.393188,314.219421 284.212585,309.330353 286.702820,301.155792 
	C289.536743,291.853027 285.336945,283.831665 274.935730,280.091278 
M263.353577,348.113373 
	C259.453857,348.113373 255.554169,348.113373 251.534714,348.113373 
	C251.534714,359.040710 251.534714,369.329529 251.534714,379.584930 
	C263.174957,382.745239 273.156219,378.751648 275.760864,369.974976 
	C278.835358,359.615143 274.584625,351.668793 263.353577,348.113373 
M162.158981,372.024597 
	C164.893417,378.534607 169.753952,381.508942 176.149155,380.585785 
	C182.331543,379.693359 186.219391,375.537872 186.580841,368.536957 
	C186.921631,361.936096 186.653961,355.303802 186.653961,348.598877 
	C184.219193,348.598877 182.202042,348.598877 179.961044,348.598877 
	C179.961044,355.430450 180.296432,361.940643 179.773682,368.381165 
	C179.597824,370.547913 177.639587,373.176666 175.730682,374.368134 
	C174.589203,375.080627 171.452240,373.937164 170.156158,372.665710 
	C168.972702,371.504761 168.705627,369.057800 168.653061,367.160461 
	C168.480133,360.918365 168.587997,354.668488 168.587997,348.500732 
	C165.917603,348.500732 164.005249,348.500732 162.030807,348.500732 
	C162.030807,356.255585 162.030807,363.735413 162.158981,372.024597 
M227.903229,352.617859 
	C221.911606,346.958160 214.638550,347.658051 207.167206,348.212708 
	C207.167206,358.921631 207.167206,369.368774 207.167206,379.990173 
	C215.610199,381.183533 223.779022,381.632538 229.403824,373.745483 
	C233.426331,368.105164 232.802826,359.625336 227.903229,352.617859 
M168.017502,302.459473 
	C168.017502,305.569763 168.017502,308.680084 168.017502,311.826904 
	C170.388077,311.826904 172.176926,311.826904 174.441650,311.826904 
	C174.441650,307.888092 174.441650,304.129669 174.441650,300.143341 
	C180.146561,299.245636 180.054428,303.910858 181.070236,306.598083 
	C182.816483,311.217468 185.257721,313.465027 190.457275,311.515045 
	C188.477798,307.238617 186.472763,302.906952 184.108673,297.799622 
	C184.744339,297.447540 185.587708,297.153076 186.210052,296.606781 
	C189.506424,293.713226 190.417709,289.590912 188.539154,286.207062 
	C187.070618,283.561920 183.677261,281.159058 180.690598,280.389496 
	C176.847458,279.399231 172.556076,280.148529 168.017502,280.148529 
	C168.017502,287.579071 168.017502,294.525665 168.017502,302.459473 
M361.261322,371.830505 
	C360.875580,371.542419 360.220184,370.944855 360.143616,371.011597 
	C358.305573,372.613190 358.873260,377.916412 361.118164,378.853363 
	C366.012939,380.896332 371.069366,381.592072 376.125031,379.399384 
	C380.413605,377.539429 382.359802,374.181580 382.170624,369.486542 
	C381.985168,364.883972 379.147736,362.699005 375.160583,361.577789 
	C372.930847,360.950867 370.494171,360.873932 368.421265,359.945343 
	C367.192780,359.395050 366.490967,357.669098 365.552338,356.471771 
	C366.790924,355.579407 368.098236,353.857239 369.254944,353.953094 
	C372.487793,354.221008 375.658325,355.241150 380.000671,356.224060 
	C379.033997,353.722015 378.566437,349.748718 377.148071,349.373993 
	C373.335480,348.366577 368.979858,348.217926 365.096252,349.000732 
	C360.923157,349.841827 359.143097,353.606659 359.242126,357.805725 
	C359.337433,361.845886 361.376923,364.795471 365.328491,366.000641 
	C367.531158,366.672363 369.982574,366.605896 372.108398,367.425659 
	C373.589813,367.996918 374.708832,369.508087 375.989716,370.599396 
	C374.707062,371.896271 373.385895,374.317657 372.149109,374.275330 
	C368.691345,374.156921 365.268494,373.019379 361.261322,371.830505 
M330.038239,367.661255 
	C332.868927,366.787170 335.699585,365.913055 338.919312,364.918823 
	C338.861298,363.659729 338.782318,361.946167 338.690247,359.948975 
	C335.612854,359.948975 333.010437,359.948975 330.226379,359.948975 
	C330.226379,357.873260 330.226379,356.106689 330.226379,354.134521 
	C333.853027,354.134521 337.291809,354.134521 340.789124,354.134521 
	C340.789124,352.027466 340.789124,350.131561 340.789124,348.408875 
	C335.021729,348.408875 329.589142,348.408875 324.142883,348.408875 
	C324.142883,359.054169 324.142883,369.443817 324.142883,379.641205 
	C330.210815,379.641205 335.958862,379.641205 341.657043,379.641205 
	C341.657043,377.660156 341.657043,376.057495 341.657043,373.999390 
	C337.706757,373.999390 333.963226,373.999390 330.034668,373.999390 
	C330.034668,371.894958 330.034668,370.249268 330.038239,367.661255 
M296.201904,379.088074 
	C298.312408,379.486572 300.422913,379.885101 302.661865,380.307861 
	C302.661865,369.185211 302.661865,358.803436 302.661865,348.538757 
	C300.405823,348.538757 298.482788,348.538757 296.146332,348.538757 
	C296.146332,358.586578 296.146332,368.369141 296.201904,379.088074 
z"/>
<path fill="#8952FB" opacity="1.000000" stroke="none" 
	d="
M251.908157,171.010406 
	C257.739075,171.004471 263.578125,171.179733 269.397552,170.918320 
	C272.438324,170.781723 274.127228,171.724182 275.658783,174.419266 
	C290.284241,200.155869 305.061890,225.806015 319.421722,251.702194 
	C311.435272,247.245316 304.074188,242.602371 294.241516,243.732437 
	C286.215546,244.654861 277.961456,244.405731 269.877991,243.779327 
	C262.265442,243.189407 256.272858,244.395096 253.463654,252.372192 
	C249.125183,245.211838 244.700851,238.100357 240.560211,230.827362 
	C240.059357,229.947632 240.813110,228.042007 241.459564,226.874359 
	C244.339172,221.673004 247.391144,216.567078 250.680847,211.774490 
	C250.938644,215.592010 251.496201,219.199341 250.737762,222.504715 
	C248.739532,231.213440 255.248810,236.176956 258.440002,243.939728 
	C260.786469,239.459000 262.455414,236.272018 264.124390,233.085052 
	C271.141998,233.094040 278.159607,233.103027 285.937073,233.185455 
	C292.116364,236.190308 297.535797,239.121704 303.027985,242.220169 
	C303.225037,242.427795 303.349396,242.468369 303.473724,242.508926 
	C303.347260,242.310730 303.220795,242.112534 303.111572,241.547729 
	C302.736877,240.275192 302.428619,239.321289 301.940704,238.470428 
	C292.595001,222.173248 282.643219,206.187805 274.088959,189.486282 
	C269.099243,179.744171 260.918701,175.649338 251.800934,171.985992 
	C251.800934,171.985992 251.494247,171.915649 251.454742,171.728531 
	C251.608734,171.391510 251.773041,171.214508 251.908157,171.010406 
z"/>
<path fill="#67686D" opacity="1.000000" stroke="none" 
	d="
M251.913727,170.645935 
	C251.773041,171.214508 251.608734,171.391510 251.303864,171.683975 
	C242.445129,186.860580 233.682388,201.885666 224.955673,216.931671 
	C218.717209,227.687607 212.446350,238.426376 206.373383,249.275482 
	C204.896088,251.914627 203.250137,253.168304 200.132278,253.008423 
	C194.995071,252.744995 189.837234,252.883820 184.422058,252.358795 
	C185.931488,250.656113 187.594803,249.218719 189.504135,248.283630 
	C194.568741,245.803299 198.448029,242.499969 201.077271,237.204697 
	C204.979630,229.345383 209.770462,221.928772 214.147369,214.303207 
	C226.453629,192.862869 238.741638,171.412079 251.426392,150.026917 
	C255.165543,150.626572 258.515137,151.164719 261.864716,151.702866 
	C258.549561,157.895721 255.234436,164.088593 251.913727,170.645935 
z"/>
<path fill="#81838A" opacity="1.000000" stroke="none" 
	d="
M251.036835,149.965408 
	C238.741638,171.412079 226.453629,192.862869 214.147369,214.303207 
	C209.770462,221.928772 204.979630,229.345383 201.077271,237.204697 
	C198.448029,242.499969 194.568741,245.803299 189.504135,248.283630 
	C187.594803,249.218719 185.931488,250.656113 184.030777,252.220917 
	C184.082977,250.934204 183.760757,249.006027 184.511581,247.690063 
	C199.903809,220.712341 215.408264,193.798584 230.913651,166.885513 
	C237.380692,155.660522 243.901535,144.466537 250.715881,133.609894 
	C251.034836,139.296021 251.035828,144.630707 251.036835,149.965408 
z"/>
<path fill="#2790D3" opacity="1.000000" stroke="none" 
	d="
M302.955261,242.053116 
	C297.535797,239.121704 292.116364,236.190308 286.402832,233.082626 
	C274.719452,212.841034 263.330200,192.775726 251.870926,172.348206 
	C260.918701,175.649338 269.099243,179.744171 274.088959,189.486282 
	C282.643219,206.187805 292.595001,222.173248 301.940704,238.470428 
	C302.428619,239.321289 302.736877,240.275192 303.075684,241.581299 
	C303.022552,241.981476 302.955261,242.053116 302.955261,242.053116 
z"/>
<path fill="#874FF5" opacity="1.000000" stroke="none" 
	d="
M305.710205,289.100006 
	C305.710358,285.979584 305.710358,283.342102 305.710358,280.554291 
	C316.040497,278.837860 314.397247,289.632935 319.965118,292.931488 
	C321.517242,290.242981 323.520996,287.527954 324.731445,284.496124 
	C326.487946,280.096741 329.485107,279.629181 333.657166,280.775604 
	C333.657166,291.016418 333.657166,301.244598 333.657166,311.748535 
	C331.637573,311.748535 329.751556,311.748535 327.330566,311.748535 
	C327.330566,305.531372 327.330566,299.500397 327.330566,293.469421 
	C327.027283,293.392914 326.724030,293.316376 326.420746,293.239838 
	C324.293274,296.854553 322.165802,300.469299 319.736786,304.596375 
	C317.246246,300.635284 315.073334,297.179382 312.244690,292.680573 
	C312.244690,299.675537 312.244690,305.623230 312.244690,311.790527 
	C309.897064,311.790527 308.141998,311.790527 305.710022,311.790527 
	C305.710022,304.387817 305.710022,296.985382 305.710205,289.100006 
z"/>
<path fill="#F6F6F6" opacity="1.000000" stroke="none" 
	d="
M121.520027,378.295776 
	C121.493469,369.355255 121.641747,360.853302 121.413933,352.361450 
	C121.324913,349.043365 122.467224,347.808411 125.655571,347.991089 
	C127.479202,348.095612 129.321121,347.852753 131.148438,347.925842 
	C140.024307,348.280579 143.113556,352.968506 139.755951,361.224731 
	C144.061554,364.004669 145.919418,367.906860 144.468704,373.051666 
	C143.016891,378.200378 138.951141,380.182617 134.236176,380.256104 
	C130.014511,380.321899 125.775703,379.287415 121.520027,378.295776 
M127.953568,370.470825 
	C128.018539,371.927063 128.083511,373.383331 128.171783,375.361664 
	C130.743149,375.116150 133.377213,375.537903 135.156769,374.497742 
	C136.802765,373.535645 138.704773,370.814789 138.439392,369.207825 
	C137.753922,365.057343 133.783401,365.903870 130.732300,365.611359 
	C127.526703,365.303986 127.893097,367.511078 127.953568,370.470825 
M127.953857,357.510437 
	C127.517754,360.648773 129.632538,361.025421 131.560532,360.111938 
	C133.004883,359.427551 133.874557,357.530365 135.000107,356.173187 
	C133.083405,354.782440 131.166687,353.391663 128.252655,351.277283 
	C128.080566,354.330444 128.017090,355.456726 127.953857,357.510437 
z"/>
<path fill="#874FF5" opacity="1.000000" stroke="none" 
	d="
M215.077515,281.867493 
	C223.920609,278.147034 231.947769,280.015503 236.306046,286.561554 
	C240.570084,292.966064 239.648911,302.217926 234.198578,307.728027 
	C228.738678,313.247803 220.106110,314.230957 213.563812,310.078094 
	C203.638168,303.777496 204.225342,289.688629 215.077515,281.867493 
M229.666763,288.894653 
	C225.158127,285.186310 220.242279,284.803619 216.696243,287.884918 
	C212.971375,291.121613 212.003448,297.673340 214.607376,302.024017 
	C216.907639,305.867279 221.905579,307.571869 226.342682,306.026489 
	C230.675003,304.517548 232.934570,299.880554 231.927872,294.085693 
	C231.654572,292.512573 230.750275,291.049072 229.666763,288.894653 
z"/>
<path fill="#874FF5" opacity="1.000000" stroke="none" 
	d="
M275.346832,280.171509 
	C285.336945,283.831665 289.536743,291.853027 286.702820,301.155792 
	C284.212585,309.330353 275.393188,314.219421 266.909058,312.128571 
	C259.165466,310.220184 254.444504,303.573669 255.031738,295.406799 
	C255.612473,287.330170 261.810699,280.663696 269.457245,280.017548 
	C271.268372,279.864471 273.108795,280.057465 275.346832,280.171509 
M280.096954,292.620605 
	C277.503357,286.845001 273.714691,284.721985 268.462677,286.101379 
	C264.121307,287.241547 261.430725,291.892395 261.834869,297.557800 
	C262.201874,302.702423 265.559631,306.124329 270.678497,306.570343 
	C277.602234,307.173676 281.548615,301.754272 280.096954,292.620605 
z"/>
<path fill="#EFEFEF" opacity="1.000000" stroke="none" 
	d="
M263.748383,348.185059 
	C274.584625,351.668793 278.835358,359.615143 275.760864,369.974976 
	C273.156219,378.751648 263.174957,382.745239 251.534714,379.584930 
	C251.534714,369.329529 251.534714,359.040710 251.534714,348.113373 
	C255.554169,348.113373 259.453857,348.113373 263.748383,348.185059 
M257.869537,365.470673 
	C257.869537,368.578979 257.869537,371.687286 257.869537,374.758453 
	C266.069824,375.153625 269.901947,371.748596 269.931000,364.589111 
	C269.961334,357.114960 266.180267,353.714233 257.869537,354.159668 
	C257.869537,357.575897 257.869537,361.032074 257.869537,365.470673 
z"/>
<path fill="#2790D3" opacity="1.000000" stroke="none" 
	d="
M253.754791,252.576111 
	C256.272858,244.395096 262.265442,243.189407 269.877991,243.779327 
	C277.961456,244.405731 286.215546,244.654861 294.241516,243.732437 
	C304.074188,242.602371 311.435272,247.245316 319.360107,252.053772 
	C318.933563,252.422577 318.194427,252.869247 317.455383,252.869171 
	C296.318909,252.866928 275.182404,252.819824 253.754791,252.576111 
z"/>
<path fill="#EFEFEF" opacity="1.000000" stroke="none" 
	d="
M162.094894,371.619934 
	C162.030807,363.735413 162.030807,356.255585 162.030807,348.500732 
	C164.005249,348.500732 165.917603,348.500732 168.587997,348.500732 
	C168.587997,354.668488 168.480133,360.918365 168.653061,367.160461 
	C168.705627,369.057800 168.972702,371.504761 170.156158,372.665710 
	C171.452240,373.937164 174.589203,375.080627 175.730682,374.368134 
	C177.639587,373.176666 179.597824,370.547913 179.773682,368.381165 
	C180.296432,361.940643 179.961044,355.430450 179.961044,348.598877 
	C182.202042,348.598877 184.219193,348.598877 186.653961,348.598877 
	C186.653961,355.303802 186.921631,361.936096 186.580841,368.536957 
	C186.219391,375.537872 182.331543,379.693359 176.149155,380.585785 
	C169.753952,381.508942 164.893417,378.534607 162.094894,371.619934 
z"/>
<path fill="#F6F6F6" opacity="1.000000" stroke="none" 
	d="
M228.156433,352.888672 
	C232.802826,359.625336 233.426331,368.105164 229.403824,373.745483 
	C223.779022,381.632538 215.610199,381.183533 207.167206,379.990173 
	C207.167206,369.368774 207.167206,358.921631 207.167206,348.212708 
	C214.638550,347.658051 221.911606,346.958160 228.156433,352.888672 
M220.296326,354.836456 
	C218.099716,354.427826 215.903122,354.019165 213.578186,353.586670 
	C213.578186,361.082550 213.578186,367.921631 213.578186,374.780273 
	C218.714996,375.484802 222.534805,374.120178 224.560135,369.514801 
	C226.639252,364.787048 225.056137,358.769775 220.296326,354.836456 
z"/>
<path fill="#874FF5" opacity="1.000000" stroke="none" 
	d="
M168.017502,301.965881 
	C168.017502,294.525665 168.017502,287.579071 168.017502,280.148529 
	C172.556076,280.148529 176.847458,279.399231 180.690598,280.389496 
	C183.677261,281.159058 187.070618,283.561920 188.539154,286.207062 
	C190.417709,289.590912 189.506424,293.713226 186.210052,296.606781 
	C185.587708,297.153076 184.744339,297.447540 184.108673,297.799622 
	C186.472763,302.906952 188.477798,307.238617 190.457275,311.515045 
	C185.257721,313.465027 182.816483,311.217468 181.070236,306.598083 
	C180.054428,303.910858 180.146561,299.245636 174.441650,300.143341 
	C174.441650,304.129669 174.441650,307.888092 174.441650,311.826904 
	C172.176926,311.826904 170.388077,311.826904 168.017502,311.826904 
	C168.017502,308.680084 168.017502,305.569763 168.017502,301.965881 
M175.093994,285.883484 
	C174.774841,288.696198 174.455704,291.508942 174.123398,294.437714 
	C178.152832,294.983002 181.406616,295.251801 182.867996,291.522308 
	C184.347366,287.746948 181.984695,285.851318 175.093994,285.883484 
z"/>
<path fill="#EFEFEF" opacity="1.000000" stroke="none" 
	d="
M361.546570,372.057281 
	C365.268494,373.019379 368.691345,374.156921 372.149109,374.275330 
	C373.385895,374.317657 374.707062,371.896271 375.989716,370.599396 
	C374.708832,369.508087 373.589813,367.996918 372.108398,367.425659 
	C369.982574,366.605896 367.531158,366.672363 365.328491,366.000641 
	C361.376923,364.795471 359.337433,361.845886 359.242126,357.805725 
	C359.143097,353.606659 360.923157,349.841827 365.096252,349.000732 
	C368.979858,348.217926 373.335480,348.366577 377.148071,349.373993 
	C378.566437,349.748718 379.033997,353.722015 380.000671,356.224060 
	C375.658325,355.241150 372.487793,354.221008 369.254944,353.953094 
	C368.098236,353.857239 366.790924,355.579407 365.552338,356.471771 
	C366.490967,357.669098 367.192780,359.395050 368.421265,359.945343 
	C370.494171,360.873932 372.930847,360.950867 375.160583,361.577789 
	C379.147736,362.699005 381.985168,364.883972 382.170624,369.486542 
	C382.359802,374.181580 380.413605,377.539429 376.125031,379.399384 
	C371.069366,381.592072 366.012939,380.896332 361.118164,378.853363 
	C358.873260,377.916412 358.305573,372.613190 360.143616,371.011597 
	C360.220184,370.944855 360.875580,371.542419 361.546570,372.057281 
z"/>
<path fill="#F6F6F6" opacity="1.000000" stroke="none" 
	d="
M330.036438,368.132416 
	C330.034668,370.249268 330.034668,371.894958 330.034668,373.999390 
	C333.963226,373.999390 337.706757,373.999390 341.657043,373.999390 
	C341.657043,376.057495 341.657043,377.660156 341.657043,379.641205 
	C335.958862,379.641205 330.210815,379.641205 324.142883,379.641205 
	C324.142883,369.443817 324.142883,359.054169 324.142883,348.408875 
	C329.589142,348.408875 335.021729,348.408875 340.789124,348.408875 
	C340.789124,350.131561 340.789124,352.027466 340.789124,354.134521 
	C337.291809,354.134521 333.853027,354.134521 330.226379,354.134521 
	C330.226379,356.106689 330.226379,357.873260 330.226379,359.948975 
	C333.010437,359.948975 335.612854,359.948975 338.690247,359.948975 
	C338.782318,361.946167 338.861298,363.659729 338.919312,364.918823 
	C335.699585,365.913055 332.868927,366.787170 330.036438,368.132416 
z"/>
<path fill="#EFEFEF" opacity="1.000000" stroke="none" 
	d="
M296.174133,378.619873 
	C296.146332,368.369141 296.146332,358.586578 296.146332,348.538757 
	C298.482788,348.538757 300.405823,348.538757 302.661865,348.538757 
	C302.661865,358.803436 302.661865,369.185211 302.661865,380.307861 
	C300.422913,379.885101 298.312408,379.486572 296.174133,378.619873 
z"/>
<path fill="#2790D3" opacity="1.000000" stroke="none" 
	d="
M264.021332,232.736008 
	C262.455414,236.272018 260.786469,239.459000 258.440002,243.939728 
	C255.248810,236.176956 248.739532,231.213440 250.737762,222.504715 
	C251.496201,219.199341 250.938644,215.592010 250.996338,211.672272 
	C255.313965,218.277130 259.616119,225.332047 264.021332,232.736008 
z"/>
<path fill="#F5D65A" opacity="1.000000" stroke="none" 
	d="
M251.426392,150.026917 
	C251.035828,144.630707 251.034836,139.296021 251.037933,133.495148 
	C254.665024,139.028305 258.288025,145.027634 261.887878,151.364914 
	C258.515137,151.164719 255.165543,150.626572 251.426392,150.026917 
z"/>
<path fill="#2790D3" opacity="1.000000" stroke="none" 
	d="
M303.058472,241.947906 
	C303.220795,242.112534 303.347260,242.310730 303.473724,242.508926 
	C303.349396,242.468369 303.225037,242.427795 303.027985,242.220169 
	C302.955261,242.053116 303.022552,241.981476 303.058472,241.947906 
z"/>
<path fill="#000000" opacity="1.000000" stroke="none" 
	d="
M127.953575,369.992279 
	C127.893097,367.511078 127.526703,365.303986 130.732300,365.611359 
	C133.783401,365.903870 137.753922,365.057343 138.439392,369.207825 
	C138.704773,370.814789 136.802765,373.535645 135.156769,374.497742 
	C133.377213,375.537903 130.743149,375.116150 128.171783,375.361664 
	C128.083511,373.383331 128.018539,371.927063 127.953575,369.992279 
z"/>
<path fill="#000000" opacity="1.000000" stroke="none" 
	d="
M127.953735,357.046753 
	C128.017090,355.456726 128.080566,354.330444 128.252655,351.277283 
	C131.166687,353.391663 133.083405,354.782440 135.000092,356.173187 
	C133.874557,357.530365 133.004883,359.427551 131.560532,360.111938 
	C129.632538,361.025421 127.517754,360.648773 127.953735,357.046753 
z"/>
<path fill="#000000" opacity="1.000000" stroke="none" 
	d="
M229.901169,289.214966 
	C230.750275,291.049072 231.654572,292.512573 231.927872,294.085693 
	C232.934570,299.880554 230.675003,304.517548 226.342682,306.026489 
	C221.905579,307.571869 216.907639,305.867279 214.607376,302.024017 
	C212.003448,297.673340 212.971375,291.121613 216.696243,287.884918 
	C220.242279,284.803619 225.158127,285.186310 229.901169,289.214966 
z"/>
<path fill="#000000" opacity="1.000000" stroke="none" 
	d="
M280.187134,293.004669 
	C281.548615,301.754272 277.602234,307.173676 270.678497,306.570343 
	C265.559631,306.124329 262.201874,302.702423 261.834869,297.557800 
	C261.430725,291.892395 264.121307,287.241547 268.462677,286.101379 
	C273.714691,284.721985 277.503357,286.845001 280.187134,293.004669 
z"/>
<path fill="#000000" opacity="1.000000" stroke="none" 
	d="
M257.869537,364.979431 
	C257.869537,361.032074 257.869537,357.575897 257.869537,354.159668 
	C266.180267,353.714233 269.961334,357.114960 269.931000,364.589111 
	C269.901947,371.748596 266.069824,375.153625 257.869537,374.758453 
	C257.869537,371.687286 257.869537,368.578979 257.869537,364.979431 
z"/>
<path fill="#000000" opacity="1.000000" stroke="none" 
	d="
M220.671204,354.992767 
	C225.056137,358.769775 226.639252,364.787048 224.560135,369.514801 
	C222.534805,374.120178 218.714996,375.484802 213.578186,374.780273 
	C213.578186,367.921631 213.578186,361.082550 213.578186,353.586670 
	C215.903122,354.019165 218.099716,354.427826 220.671204,354.992767 
z"/>
<path fill="#000000" opacity="1.000000" stroke="none" 
	d="
M175.463821,285.747345 
	C181.984695,285.851318 184.347366,287.746948 182.867996,291.522308 
	C181.406616,295.251801 178.152832,294.983002 174.123398,294.437714 
	C174.455704,291.508942 174.774841,288.696198 175.463821,285.747345 
z"/>
</svg>